PathFileType	4	(X/Y/Z)	c:/Users/goper/Files/vsCode/490R/osim_files/C05/C05_SSWS_03.trc
DataRate	CameraRate	NumFrames	NumMarkers	Units                	OrigDataRate	OrigDataStartFrame	OrigNumFrames
250.00	250.00	6	36	mm	250.0	2157	2465
                Frame#	Time	LPSIS			LASIS			LTH1			LTH2			LTH3			LTH4			LLFE			LMFE			LSH1			LSH2			LSH3			LSH4			LLMAL			LMMAL			LCAL			LMTP5			LTOE			LMTP1			RPSIS			RASIS			RTH1			RTH2			RTH3			RTH4			RLFE			RMFE			RSH1			RSH2			RSH3			RSH4			RLMAL			RMMAL			RCAL			RMTP1			RTOE			RMTP5		
		X1	Y1	Z1	X2	Y2	Z2	X3	Y3	Z3	X4	Y4	Z4	X5	Y5	Z5	X6	Y6	Z6	X7	Y7	Z7	X8	Y8	Z8	X9	Y9	Z9	X10	Y10	Z10	X11	Y11	Z11	X12	Y12	Z12	X13	Y13	Z13	X14	Y14	Z14	X15	Y15	Z15	X16	Y16	Z16	X17	Y17	Z17	X18	Y18	Z18	X19	Y19	Z19	X20	Y20	Z20	X21	Y21	Z21	X22	Y22	Z22	X23	Y23	Z23	X24	Y24	Z24	X25	Y25	Z25	X26	Y26	Z26	X27	Y27	Z27	X28	Y28	Z28	X29	Y29	Z29	X30	Y30	Z30	X31	Y31	Z31	X32	Y32	Z32	X33	Y33	Z33	X34	Y34	Z34	X35	Y35	Z35	X36	Y36	Z36

2157	8.62400	0.00000	0.00000	0.00000	-3575.14502	1018.34973	281.06223	0.00000	0.00000	0.00000	0.00000	0.00000	0.00000	-3634.88770	727.26843	331.93542	-3657.33203	670.81158	323.11554	-3679.60889	564.62329	303.22919	-3684.66821	555.79669	183.08179	-3712.94434	393.17209	325.41599	-3723.33813	351.36777	318.95859	0.00000	0.00000	0.00000	0.00000	0.00000	0.00000	0.00000	0.00000	0.00000	-3820.40088	157.89703	203.41235	0.00000	0.00000	0.00000	0.00000	0.00000	0.00000	-3963.97705	168.63123	270.53293	0.00000	0.00000	0.00000	-3371.73828	1057.94714	129.92949	-3562.16333	1024.14099	52.54605	-3411.64990	692.46045	7.34816	0.00000	0.00000	0.00000	-3483.77661	690.87750	14.36853	-3479.64038	629.51910	26.70298	0.00000	0.00000	0.00000	-3438.86646	535.93268	44.52710	0.00000	0.00000	0.00000	0.00000	0.00000	0.00000	-3383.72095	381.26819	40.55949	-3369.03149	336.87079	48.21296	-3275.62842	117.02112	100.06725	-3302.69678	128.74126	187.57147	-3208.46558	90.09882	150.82147	-3428.18774	54.20930	167.43889	-3447.10913	76.19553	118.00203	-3392.21558	51.20950	55.71558
2158	8.62800	0.00000	0.00000	0.00000	-3580.06885	1017.40149	280.81271	0.00000	0.00000	0.00000	0.00000	0.00000	0.00000	-3637.88843	725.38770	332.19171	-3659.97949	668.85272	323.63837	-3682.59253	563.08105	303.83347	-3686.84473	554.04114	183.38474	-3719.13477	392.41501	325.31525	-3730.27930	350.78516	318.70163	0.00000	0.00000	0.00000	0.00000	0.00000	0.00000	0.00000	0.00000	0.00000	-3830.77783	159.57657	202.17007	0.00000	0.00000	0.00000	0.00000	0.00000	0.00000	-3974.38037	172.88885	268.99573	0.00000	0.00000	0.00000	-3374.93164	1057.02283	128.88161	-3566.65088	1023.37341	52.25550	-3414.54199	692.30841	7.17907	0.00000	0.00000	0.00000	-3486.52344	690.30811	14.16656	-3482.13672	629.02148	26.55278	0.00000	0.00000	0.00000	-3440.89185	535.54816	44.28987	0.00000	0.00000	0.00000	0.00000	0.00000	0.00000	-3384.97656	381.15735	40.37225	-3370.20752	336.87247	48.06623	-3275.06860	116.63135	100.69131	-3302.98779	128.88234	187.58633	-3207.98438	90.33245	150.58830	-3428.25024	54.16060	167.41605	-3447.16577	76.06096	117.98354	-3392.16821	51.11438	55.67760
2159	8.63200	0.00000	0.00000	0.00000	-3585.05688	1016.50317	280.59280	0.00000	0.00000	0.00000	0.00000	0.00000	0.00000	-3641.18237	723.79456	332.52673	-3662.84546	666.96326	324.23569	-3685.76294	561.61011	304.48663	-3688.97607	552.32269	183.81454	-3725.20874	391.68262	325.18771	-3737.07031	350.19626	318.42075	0.00000	0.00000	0.00000	0.00000	0.00000	0.00000	0.00000	0.00000	0.00000	-3840.70703	161.30644	200.89302	0.00000	0.00000	0.00000	0.00000	0.00000	0.00000	-3984.31494	176.88602	267.32202	0.00000	0.00000	0.00000	-3380.94580	1056.29663	130.09787	-3571.15918	1022.61969	52.02534	-3417.46533	692.08142	7.01295	0.00000	0.00000	0.00000	-3489.54883	689.77814	13.99906	-3484.75562	628.51093	26.44615	0.00000	0.00000	0.00000	-3442.95239	535.20221	44.03382	0.00000	0.00000	0.00000	0.00000	0.00000	0.00000	-3386.22021	380.94797	40.21614	-3371.32837	336.77856	47.88926	-3275.30444	116.84913	100.67493	-3303.33813	129.05518	187.57350	-3208.12817	90.64469	150.59567	-3428.27637	54.07940	167.38850	-3447.22827	75.92797	117.96718	-3392.21313	51.10074	55.68908
2160	8.63600	-3383.69775	1041.10950	235.84761	-3590.10059	1015.54968	280.26419	0.00000	0.00000	0.00000	0.00000	0.00000	0.00000	-3644.69751	722.23853	333.01486	-3666.04810	665.30701	324.97540	-3689.09351	560.21234	305.16422	-3691.32764	550.79828	184.21463	-3731.07617	390.86624	325.09265	-3743.65942	349.66064	318.15286	-3674.85205	368.21643	310.15497	0.00000	0.00000	0.00000	0.00000	0.00000	0.00000	-3850.28125	163.06303	199.56934	0.00000	0.00000	0.00000	0.00000	0.00000	0.00000	-3993.94287	180.67133	265.50381	0.00000	0.00000	0.00000	-3385.44995	1055.48474	130.08357	-3575.63867	1021.78058	51.82277	-3420.41528	691.80591	6.87721	0.00000	0.00000	0.00000	-3492.43286	689.12762	13.81385	-3487.40308	627.95282	26.22249	0.00000	0.00000	0.00000	-3445.12744	534.78809	43.78473	0.00000	0.00000	0.00000	0.00000	0.00000	0.00000	-3387.73560	380.84631	40.02865	-3372.62866	336.74222	47.70324	-3275.64551	117.18111	100.57401	-3303.71899	129.18372	187.56905	-3208.32227	90.95001	150.56557	-3431.38306	56.32942	166.48659	-3447.27930	75.79691	117.94139	-3392.24536	51.03752	55.65010
2161	8.64000	0.00000	0.00000	0.00000	-3595.00635	1014.52460	280.02914	0.00000	0.00000	0.00000	0.00000	0.00000	0.00000	-3648.43726	720.92102	333.58319	-3669.53198	663.79535	325.70590	-3692.49512	558.81244	305.82333	-3693.79517	549.42676	184.60748	-3736.89819	390.20627	325.02979	-3750.05835	349.19339	317.90533	-3681.06396	366.67740	310.11057	0.00000	0.00000	0.00000	0.00000	0.00000	0.00000	-3859.15991	164.64610	198.30125	0.00000	0.00000	0.00000	0.00000	0.00000	0.00000	-4002.94409	184.03024	263.64252	0.00000	0.00000	0.00000	0.00000	0.00000	0.00000	-3580.15234	1020.87341	51.56355	-3423.56543	691.57825	6.75527	0.00000	0.00000	0.00000	-3495.57910	688.58569	13.62534	-3490.12378	627.35901	26.07672	0.00000	0.00000	0.00000	-3447.36963	534.38904	43.58826	0.00000	0.00000	0.00000	0.00000	0.00000	0.00000	-3389.17505	380.62991	39.87382	-3373.81641	336.58896	47.54378	-3275.92432	117.41566	100.50679	-3304.07886	129.32265	187.54883	-3208.52026	91.25819	150.51880	-3431.46802	56.28722	166.43761	-3447.34106	75.63448	117.87779	-3392.35181	51.06946	55.66065
2162	8.64400	-3396.77588	1038.87708	237.25987	-3600.02808	1013.53363	279.76907	0.00000	0.00000	0.00000	0.00000	0.00000	0.00000	-3652.44604	719.69910	334.18857	-3673.41895	662.00446	328.05899	-3696.14380	557.48798	306.46924	-3696.56567	548.16064	184.95187	-3742.35059	389.47351	324.94284	-3756.14526	348.63150	317.66019	0.00000	0.00000	0.00000	0.00000	0.00000	0.00000	0.00000	0.00000	0.00000	-3867.70117	166.23759	197.11627	0.00000	0.00000	0.00000	0.00000	0.00000	0.00000	-4011.57153	187.11127	261.72253	0.00000	0.00000	0.00000	-3393.50122	1053.67480	129.20241	-3584.75977	1020.04834	51.29687	-3426.68311	691.26349	6.62206	0.00000	0.00000	0.00000	-3498.61938	687.87396	13.45758	-3492.91650	626.71967	25.95351	0.00000	0.00000	0.00000	-3449.75610	533.90649	43.34605	0.00000	0.00000	0.00000	0.00000	0.00000	0.00000	-3390.73853	380.40982	39.73338	-3375.20020	336.45029	47.44044	-3277.39966	118.62104	100.44795	-3299.56079	125.43063	181.34833	-3209.59888	91.39961	150.31248	-3431.58154	56.25975	166.35736	-3447.40991	75.49213	117.86334	-3392.37744	51.01729	55.61378
